<?xml version="1.0" standalone="no"?>
<!DOCTYPE svg PUBLIC "-//W3C//DTD SVG 20010904//EN"
 "http://www.w3.org/TR/2001/REC-SVG-20010904/DTD/svg10.dtd">
<svg version="1.0" xmlns="http://www.w3.org/2000/svg"
 width="164.000000pt" height="164.000000pt" viewBox="0 0 164.000000 164.000000"
 preserveAspectRatio="xMidYMid meet">
<metadata>
Created by potrace 1.11, written by Peter Selinger 2001-2013
</metadata>
<g transform="translate(0.000000,164.000000) scale(0.100000,-0.100000)"
fill="#000000" stroke="none">
<path d="M651 1604 c-218 -46 -394 -161 -512 -335 -43 -62 -101 -190 -113
-249 -4 -19 -10 -48 -14 -65 -14 -63 -6 -249 12 -325 72 -288 296 -512 586
-586 78 -19 282 -26 365 -12 156 27 321 113 432 227 162 166 236 358 228 596
-12 367 -273 672 -641 748 -87 18 -260 19 -343 1z"/>
</g>
</svg>
